<svg width="67" height="50" viewBox="0 0 67 50" fill="none" xmlns="http://www.w3.org/2000/svg">
  <path d="M18.5885 18.5457L26.4584 26.4156C24.4447 28.4293 21.661 29.6731 18.5885 29.6731C12.4437 29.6731 7.46112 24.6906 7.46112 18.5457C7.46112 12.4008 12.4437 7.41828 18.5885 7.41828C23.0084 7.41828 26.8212 9.99469 28.6202 13.7186C29.3088 10.8979 30.5896 8.3141 32.3294 6.09306C28.9386 2.3543 24.0375 0 18.5885 0H0.0428467L5.46959 5.42674C2.11582 8.78792 0.0428467 13.4225 0.0428467 18.5457C0.0428467 28.7847 8.34214 37.0914 18.5885 37.0914C24.0375 37.0914 28.9386 34.7371 32.3294 30.9909C32.7144 30.5689 33.0771 30.1247 33.4251 29.6731C35.7498 26.5711 37.1342 22.7213 37.1342 18.5457H18.5885Z" fill="#FED800"/>
  <path d="M48.2614 22.2478C50.3049 22.2478 51.9708 20.5819 51.9708 18.5385C51.9708 16.495 50.3049 14.8292 48.2614 14.8292C46.4401 14.8292 44.9223 16.147 44.6114 17.8795C44.5669 18.0942 44.5521 18.309 44.5521 18.5385C44.5521 20.5819 46.218 22.2478 48.2614 22.2478Z" fill="#FED800"/>
  <path d="M66.8082 0H48.5808C48.4772 0 48.3661 0 48.2625 0C42.8135 0 37.9124 2.3543 34.5142 6.10046C34.1366 6.52246 33.7665 6.96667 33.4259 7.42568C31.4122 10.1057 30.1092 13.3411 29.7982 16.8725H37.2609C37.3053 16.5616 37.3646 16.258 37.4386 15.9619C37.4904 15.725 37.5571 15.4881 37.6311 15.2512C37.7125 14.992 37.8014 14.7403 37.8976 14.4886C37.905 14.4738 37.905 14.4664 37.9124 14.4516C38.0087 14.2073 38.1123 13.9629 38.2308 13.726C38.3418 13.4891 38.4603 13.2596 38.5935 13.0375C38.6898 12.8672 38.786 12.7044 38.8971 12.5415C38.9415 12.4674 38.9859 12.3934 39.0377 12.3194C39.0526 12.2972 39.0674 12.2676 39.0896 12.2453C39.1932 12.0899 39.3117 11.9344 39.4301 11.7789C39.4449 11.7567 39.4671 11.7345 39.482 11.7123C39.6226 11.5272 39.7707 11.3495 39.9262 11.1718V11.1644C40.0964 10.9719 40.2741 10.7869 40.4592 10.6092C40.6369 10.4241 40.8294 10.2538 41.0219 10.0909C41.207 9.92805 41.3995 9.77258 41.5993 9.62451C41.5993 9.62451 41.6142 9.61711 41.6216 9.60971C41.8289 9.45423 42.0436 9.30616 42.2583 9.1729C42.5692 8.9656 42.895 8.78052 43.2281 8.61764C43.354 8.55101 43.4798 8.49178 43.6131 8.43255C43.85 8.3215 44.0943 8.21785 44.3386 8.12901C44.3979 8.1068 44.4645 8.07719 44.5385 8.05498C44.6718 8.01056 44.8125 7.95873 44.9457 7.92171C45.0716 7.8847 45.19 7.84768 45.3159 7.81066C45.5084 7.75884 45.7009 7.70701 45.9008 7.66259C46.0118 7.64038 46.1229 7.61817 46.2339 7.60337C46.3672 7.57375 46.5004 7.55154 46.6337 7.53673C46.7892 7.51452 46.9521 7.49231 47.1149 7.47751C47.2852 7.4553 47.4629 7.44789 47.6406 7.43309C47.8479 7.42568 48.0478 7.41828 48.2551 7.41828C54.3999 7.41828 59.3825 12.4008 59.3825 18.5531C59.3825 24.7054 54.3999 29.6805 48.2551 29.6805C48.0478 29.6805 47.8479 29.6731 47.6406 29.6657C47.4629 29.6509 47.2852 29.6435 47.1149 29.6213C46.9521 29.6065 46.7892 29.5843 46.6337 29.5621C46.5375 29.5473 46.4338 29.5324 46.3376 29.5102C46.2265 29.4954 46.1155 29.4732 46.0118 29.451C45.8711 29.4288 45.7305 29.3918 45.5898 29.3622C45.1604 29.2511 44.7384 29.1253 44.3386 28.9698C44.0943 28.8809 43.85 28.7773 43.6131 28.6662C43.4798 28.607 43.354 28.5478 43.2281 28.4812C42.895 28.3183 42.5692 28.1332 42.2583 27.9259C41.83 27.6601 41.4017 27.3421 41.0219 27.0079C40.8294 26.845 40.6369 26.6747 40.4592 26.4896C40.2741 26.3119 40.0964 26.1269 39.9262 25.9344C39.7707 25.7567 39.6226 25.5716 39.482 25.3865C39.4597 25.3643 39.4449 25.3421 39.4301 25.3199C39.3117 25.1644 39.1932 25.0089 39.0896 24.8535L38.9119 24.5869C38.8008 24.4167 38.6972 24.2464 38.5935 24.0687C38.4603 23.8392 38.3418 23.6171 38.2308 23.3802C37.5422 26.1935 36.2614 28.7847 34.5216 30.9983C37.9124 34.7445 42.8135 37.0988 48.2625 37.0988C58.5089 37.0988 66.8082 28.7921 66.8082 18.5531C66.8082 13.4299 64.7352 8.79533 61.3814 5.43415L66.8082 0Z" fill="#FED800"/>
  <path d="M0 47.3771V46.5775C0 45.341 1.07355 44.4896 2.41364 44.4896H5.58248V45.5261H2.56912C1.85095 45.5261 1.46596 45.9778 1.46596 46.5701V47.3771C1.46596 48.0064 1.85095 48.421 2.56912 48.421H4.12393V47.0587H5.58248V49.4576H2.40624C1.07355 49.4576 0 48.6505 0 47.3771Z" fill="#FED800"/>
  <path d="M6.70728 46.6589C6.70728 45.3929 7.55131 44.4896 9.23938 44.4896H10.7201C12.4082 44.4896 13.2522 45.4003 13.2522 46.6589V47.2808C13.2522 48.5469 12.4082 49.4502 10.7201 49.4502H9.23938C7.55131 49.4502 6.70728 48.5395 6.70728 47.2808V46.6589ZM8.17323 46.6885V47.2586C8.17323 48.1175 8.55823 48.5025 9.55034 48.5025H10.4018C11.4013 48.5025 11.7863 48.1175 11.7863 47.2586V46.6885C11.7863 45.8223 11.4013 45.4447 10.4018 45.4447H9.55034C8.55823 45.4447 8.17323 45.8223 8.17323 46.6885Z" fill="#FED800"/>
  <path d="M14.4293 44.4896H15.8953V47.3771C15.8953 48.0064 16.2803 48.421 16.9984 48.421H20.0118V49.4576H16.8356C15.5029 49.4576 14.4293 48.6505 14.4293 47.3771V44.4896Z" fill="#FED800"/>
  <path d="M21.0111 44.4896H24.7426C26.4307 44.4896 27.2747 45.4003 27.2747 46.6589V47.2808C27.2747 48.5469 26.4307 49.4502 24.7426 49.4502H21.0111V44.4822V44.4896ZM22.4326 48.421H24.4021C25.3275 48.421 25.8162 48.0731 25.8162 47.2068V46.733C25.8162 45.8741 25.3275 45.5261 24.4021 45.5261H22.4326V48.421Z" fill="#FED800"/>
  <path d="M28.2144 46.5701C28.2144 45.341 28.9992 44.4896 30.243 44.4896H33.9597V45.5261H30.4355C29.9246 45.5261 29.6729 45.7927 29.6729 46.1703V46.4146H33.7894V47.4215H29.6729V47.6436C29.6729 48.1397 29.9987 48.421 30.4355 48.421H33.9597V49.4576H30.2504C28.9992 49.4576 28.2144 48.6135 28.2144 47.3771V46.5701Z" fill="#FED800"/>
  <path d="M37.1445 44.4896L40.2837 48.1619V44.5118L41.7497 44.4896V49.4576H39.5952L36.5004 45.8445V49.4576H35.0344V44.4896H37.1519H37.1445Z" fill="#FED800"/>
  <path d="M43.0667 46.6589C43.0667 45.3929 43.9107 44.4896 45.5988 44.4896H47.0795C48.7676 44.4896 49.6116 45.4003 49.6116 46.6589V47.2808C49.6116 48.5469 48.7676 49.4502 47.0795 49.4502H45.5988C43.9107 49.4502 43.0667 48.5395 43.0667 47.2808V46.6589ZM44.5326 46.6885V47.2586C44.5326 48.1175 44.9176 48.5025 45.9097 48.5025H46.7612C47.7607 48.5025 48.1457 48.1175 48.1457 47.2586V46.6885C48.1457 45.8223 47.7607 45.4447 46.7612 45.4447H45.9097C44.9176 45.4447 44.5326 45.8223 44.5326 46.6885Z" fill="black"/>
  <path d="M51.7201 44.4896L53.001 48.1619L54.2892 44.4896H55.9625L57.2434 48.1619L58.5316 44.4896H59.9754L58.2429 49.4576H56.2661L55.1407 46.2295L54.0153 49.4576H52.0385L50.2986 44.4896H51.7497H51.7201Z" fill="black"/>
  <path d="M61.2721 44.5069H62.738V47.3944C62.738 48.0237 63.123 48.4384 63.8412 48.4384H66.8546V49.4749H63.6783C62.3456 49.4749 61.2721 48.6679 61.2721 47.3944V44.5069Z" fill="black"/>
</svg>
